<?xml version="1.0" encoding="UTF-8"?>
<!DOCTYPE svg PUBLIC "-//W3C//DTD SVG 1.1//EN" "http://www.w3.org/Graphics/SVG/1.1/DTD/svg11.dtd">
<svg xmlns="http://www.w3.org/2000/svg" version="1.1" width="210px" height="148px" style="shape-rendering:geometricPrecision; text-rendering:geometricPrecision; image-rendering:optimizeQuality; fill-rule:evenodd; clip-rule:evenodd" xmlns:xlink="http://www.w3.org/1999/xlink">
<g><path style="opacity:1" fill="#fafafa" d="M -0.5,-0.5 C 69.5,-0.5 139.5,-0.5 209.5,-0.5C 209.5,40.8333 209.5,82.1667 209.5,123.5C 208.691,124.469 207.691,125.302 206.5,126C 200.833,126.333 195.167,126.667 189.5,127C 189,127.5 188.5,128 188,128.5C 187.753,134.882 187.253,141.215 186.5,147.5C 124.167,147.5 61.8333,147.5 -0.5,147.5C -0.5,98.1667 -0.5,48.8333 -0.5,-0.5 Z"/></g>
<g><path style="opacity:1" fill="#090909" d="M 104.5,105.5 C 88.5,106.833 72.5,106.833 56.5,105.5C 67.7332,84.0343 79.2332,62.701 91,41.5C 95.999,51.3121 101.166,60.9788 106.5,70.5C 112.5,71.8333 118.5,71.8333 124.5,70.5C 121.706,65.747 119.04,60.9137 116.5,56C 119.882,55.1764 123.216,55.343 126.5,56.5C 135.2,72.8531 143.867,89.1865 152.5,105.5C 149.554,106.655 146.554,106.821 143.5,106C 138.706,97.5802 134.04,89.0802 129.5,80.5C 123.5,79.1667 117.5,79.1667 111.5,80.5C 116.054,89.112 120.721,97.612 125.5,106C 122.118,106.824 118.784,106.657 115.5,105.5C 107.405,90.3038 99.0713,75.3038 90.5,60.5C 83.263,72.9785 76.5964,85.6452 70.5,98.5C 77.1667,98.5 83.8333,98.5 90.5,98.5C 89.4152,94.9117 88.0818,91.4117 86.5,88C 87.1305,84.7038 88.6305,81.8704 91,79.5C 95.7257,88.0564 100.226,96.7231 104.5,105.5 Z"/></g>
<g><path style="opacity:1" fill="#c9c9c9" d="M 56.5,105.5 C 72.5,106.833 88.5,106.833 104.5,105.5C 105.043,105.56 105.376,105.893 105.5,106.5C 88.8333,107.833 72.1667,107.833 55.5,106.5C 55.6236,105.893 55.9569,105.56 56.5,105.5 Z"/></g>
<g><path style="opacity:1" fill="#090909" d="M 209.5,123.5 C 209.5,131.5 209.5,139.5 209.5,147.5C 201.833,147.5 194.167,147.5 186.5,147.5C 187.253,141.215 187.753,134.882 188,128.5C 188.5,128 189,127.5 189.5,127C 195.167,126.667 200.833,126.333 206.5,126C 207.691,125.302 208.691,124.469 209.5,123.5 Z"/></g>
<g><path style="opacity:1" fill="#cccccc" d="M 198.5,139.5 C 198.5,140.5 198.5,141.5 198.5,142.5C 196.167,142.5 193.833,142.5 191.5,142.5C 192.661,138.651 194.327,134.985 196.5,131.5C 197.604,133.389 198.937,135.055 200.5,136.5C 201.251,135.624 201.751,134.624 202,133.5C 204.9,136.057 206.066,139.057 205.5,142.5C 204.5,141.167 203.5,139.833 202.5,138.5C 202.167,139.833 201.833,141.167 201.5,142.5C 200.712,141.23 199.712,140.23 198.5,139.5 Z"/></g>
<g><path style="opacity:1" fill="#404040" d="M 198.5,139.5 C 197.213,138.472 196.046,138.805 195,140.5C 194.5,140.333 194,140.167 193.5,140C 194.304,138.229 195.471,136.729 197,135.5C 198.188,136.563 198.688,137.897 198.5,139.5 Z"/></g>
</svg>
